# xmcd
#
# Track frame offsets:
#	150
#	13211
#	21796
#	34429
#	46161
#	53368
#	61205
#	69783
#	78967
#	90580
#	98069
#	107149
#	118586
#	130886
#
# Disc length: 1867 seconds
#
# Revision: 1
# Processed by: cddbd v1.5.2PL0 Copyright (c) Steve Scherf et al.
# Submitted via: audiograbber 1.83.01
#
DISCID=a907490e
DTITLE=Die Lustigen Zillertaler - 50 Jahre Cafe Zillertal
DYEAR=2010
DGENRE=Volksmusik
TTITLE0=Zillertaler Marsch
TTITLE1=Auf der Sennhütte (Boarischer)
TTITLE2=Kurz und Gut (Polka)
TTITLE3=Gurktaler Walzer
TTITLE4=Pradler Hof
TTITLE5=Am Brettfall - Schrofen (Ländler)
TTITLE6=Auf der Alm (Boarische Polka)
TTITLE7=Drunt beim Bacherl (Weise)
TTITLE8=Landsleut san ma
TTITLE9=Poitl Boarische
TTITLE10=Annen Polka 
TTITLE11=Schwaz zum Gruß (Boarische Polka)
TTITLE12=Almrausch Walzer
TTITLE13=Aus´n Zillertal (Boarische Polka)
EXTD=
EXTT0=
EXTT1=
EXTT2=
EXTT3=
EXTT4=
EXTT5=
EXTT6=
EXTT7=
EXTT8=
EXTT9=
EXTT10=
EXTT11=
EXTT12=
EXTT13=
PLAYORDER=
